<svg width="16" height="16" viewBox="0 0 16 16" fill="none" xmlns="http://www.w3.org/2000/svg">
<path fill-rule="evenodd" clip-rule="evenodd" d="M2.26375 4.93951C1.78863 5.23646 1.5 5.75722 1.5 6.31751V12.7294C1.5 13.6268 2.22754 14.3544 3.125 14.3544H12.875C13.7725 14.3544 14.5 13.6268 14.5 12.7294V6.31751C14.5 5.75722 14.2114 5.23646 13.7362 4.93951L8.86125 1.89263C8.33431 1.5633 7.66569 1.5633 7.13875 1.89263L2.26375 4.93951ZM4.38819 6.90756C4.01483 6.65865 3.51037 6.75954 3.26146 7.1329C3.01255 7.50627 3.11344 8.01073 3.48681 8.25964L7.54931 10.968C7.82222 11.1499 8.17778 11.1499 8.45069 10.968L12.5132 8.25964C12.8866 8.01073 12.9875 7.50627 12.7385 7.1329C12.4896 6.75954 11.9852 6.65865 11.6118 6.90756L8 9.31543L4.38819 6.90756Z" fill="#828282"/>
</svg>
