<svg width="16" height="17" viewBox="0 0 16 17" fill="none" xmlns="http://www.w3.org/2000/svg">
<path d="M5.35161 12.8193C5.35161 12.8839 5.27742 12.9355 5.18387 12.9355C5.07742 12.9452 5.00323 12.8935 5.00323 12.8193C5.00323 12.7548 5.07742 12.7032 5.17097 12.7032C5.26774 12.6935 5.35161 12.7452 5.35161 12.8193ZM4.34839 12.6742C4.32581 12.7387 4.39032 12.8129 4.4871 12.8322C4.57097 12.8645 4.66774 12.8322 4.6871 12.7677C4.70645 12.7032 4.64516 12.629 4.54839 12.6C4.46452 12.5774 4.37097 12.6097 4.34839 12.6742ZM5.77419 12.6193C5.68064 12.6419 5.61613 12.7032 5.62581 12.7774C5.63548 12.8419 5.71935 12.8839 5.81613 12.8613C5.90968 12.8387 5.97419 12.7774 5.96452 12.7129C5.95484 12.6516 5.86774 12.6097 5.77419 12.6193ZM7.89677 0.258057C3.42258 0.258057 0 3.65483 0 8.12902C0 11.7064 2.25161 14.7677 5.46774 15.8452C5.88064 15.9193 6.02581 15.6645 6.02581 15.4548C6.02581 15.2548 6.01613 14.1516 6.01613 13.4742C6.01613 13.4742 3.75806 13.9581 3.28387 12.5129C3.28387 12.5129 2.91613 11.5742 2.3871 11.3322C2.3871 11.3322 1.64839 10.8258 2.43871 10.8355C2.43871 10.8355 3.24194 10.9 3.68387 11.6677C4.39032 12.9129 5.57419 12.5548 6.03548 12.3419C6.10968 11.8258 6.31936 11.4677 6.55161 11.2548C4.74839 11.0548 2.92903 10.7935 2.92903 7.69031C2.92903 6.80322 3.17419 6.35806 3.69032 5.79031C3.60645 5.58064 3.33226 4.71612 3.77419 3.59999C4.44839 3.39031 6 4.47096 6 4.47096C6.64516 4.29031 7.33871 4.19677 8.02581 4.19677C8.7129 4.19677 9.40645 4.29031 10.0516 4.47096C10.0516 4.47096 11.6032 3.38709 12.2774 3.59999C12.7194 4.71935 12.4452 5.58064 12.3613 5.79031C12.8774 6.36128 13.1935 6.80644 13.1935 7.69031C13.1935 10.8032 11.2935 11.0516 9.49032 11.2548C9.7871 11.5097 10.0387 11.9935 10.0387 12.7516C10.0387 13.8387 10.029 15.1839 10.029 15.4484C10.029 15.6581 10.1774 15.9129 10.5871 15.8387C13.8129 14.7677 16 11.7064 16 8.12902C16 3.65483 12.371 0.258057 7.89677 0.258057ZM3.13548 11.3839C3.09355 11.4161 3.10323 11.4903 3.15806 11.5516C3.20968 11.6032 3.28387 11.6258 3.32581 11.5839C3.36774 11.5516 3.35806 11.4774 3.30323 11.4161C3.25161 11.3645 3.17742 11.3419 3.13548 11.3839ZM2.7871 11.1226C2.76452 11.1645 2.79677 11.2161 2.86129 11.2484C2.9129 11.2806 2.97742 11.271 3 11.2258C3.02258 11.1839 2.99032 11.1322 2.92581 11.1C2.86129 11.0806 2.80968 11.0903 2.7871 11.1226ZM3.83226 12.271C3.78065 12.3129 3.8 12.4097 3.87419 12.471C3.94839 12.5452 4.04194 12.5548 4.08387 12.5032C4.12581 12.4613 4.10645 12.3645 4.04194 12.3032C3.97097 12.229 3.87419 12.2193 3.83226 12.271ZM3.46452 11.7968C3.4129 11.829 3.4129 11.9129 3.46452 11.9871C3.51613 12.0613 3.60323 12.0935 3.64516 12.0613C3.69677 12.0193 3.69677 11.9355 3.64516 11.8613C3.6 11.7871 3.51613 11.7548 3.46452 11.7968Z" fill="#828282"/>
</svg>
