<svg width="16" height="16" viewBox="0 0 16 16" fill="none" xmlns="http://www.w3.org/2000/svg">
<path d="M8.6745 1.83798C8.3572 1.52068 7.84275 1.52068 7.52545 1.83798L1.83795 7.52548C1.52065 7.84278 1.52065 8.35723 1.83795 8.67453C2.15525 8.99183 2.6697 8.99183 2.987 8.67453L3.22498 8.43655V13.7875C3.22498 14.2362 3.58874 14.6 4.03748 14.6H5.66248C6.11121 14.6 6.47498 14.2362 6.47498 13.7875V12.1625C6.47498 11.7138 6.83874 11.35 7.28748 11.35H8.91248C9.36121 11.35 9.72498 11.7138 9.72498 12.1625V13.7875C9.72498 14.2362 10.0887 14.6 10.5375 14.6H12.1625C12.6112 14.6 12.975 14.2362 12.975 13.7875V8.43655L13.213 8.67453C13.5303 8.99183 14.0447 8.99183 14.362 8.67453C14.6793 8.35723 14.6793 7.84278 14.362 7.52548L8.6745 1.83798Z" fill="#828282"/>
</svg>
